# xmcd
#
# Track frame offsets:
#	150
#	18494
#	36556
#	52902
#	69541
#	86824
#	107448
#	125064
#	142505
#	162307
#	177555
#	204041
#	220255
#	236161
#
# Disc length: 3401 seconds
#
# Revision: 1
# Processed by: cddbd v1.5.2PL0 Copyright (c) Steve Scherf et al.
# Submitted via: audiograbber 1.82.01
#
DISCID=c30d470e
DTITLE=Lucie Silvas - Breathe in
DYEAR=2005
DGENRE=
TTITLE0=Don't Look Back
TTITLE1=The Game Is Won
TTITLE2=Last Man Standing
TTITLE3=Forget Me Not
TTITLE4=Breathe In
TTITLE5=Nothing Else Matters
TTITLE6=Without You
TTITLE7=Même si
TTITLE8=Twisting The Chain
TTITLE9=No Defence
TTITLE10=The Longer We're Apart
TTITLE11=Like You Love Me
TTITLE12=Seven Veils
TTITLE13=What You're Made Of
EXTD=
EXTT0=
EXTT1=
EXTT2=
EXTT3=
EXTT4=
EXTT5=
EXTT6=
EXTT7=
EXTT8=
EXTT9=
EXTT10=
EXTT11=
EXTT12=
EXTT13=
PLAYORDER=
